Genre:Comedy | Drama
Language:English  http://www.imdb.com/title/tt0804497/
Source:BluRay.x264-REFiNED
Subtitles:Romana


Format : MPEG-4
Format profile : Base Media
Codec ID : isom
File size : 1.85 GiB
Duration : 1h 41mn
Overall bit rate : 2 612 Kbps
Movie name : Its.Kind.Of.A.Funny.Story.2010.720p.x264.Feel-Free


Video
Format settings, CABAC : Yes
Format settings, ReFrames : 4 frames
Format settings, GOP : M=1, N=16
Codec ID : avc1
Codec ID/Info : Advanced Video Coding
Duration : 1h 41mn
Bit rate mode : Variable
Bit rate : 2 200 Kbps
Width : 1 280 pixels
Height : 688 pixels
Display aspect ratio : 1.860
Frame rate mode : Constant
Frame rate : 23.976 fps
Color space : YUV
Chroma subsampling : 4:2:0
Bit depth : 8 bits
Scan type : Progressive
Bits/(Pixel*Frame) : 0.104
Stream size : 1.57 GiB (85%)
Writing library : x264

Audio
ID : 2
Format : AAC
Format/Info : Advanced Audio Codec
Format version : Version 4
Format profile : LC
Codec ID : 40
Duration : 1h 41mn
Bit rate mode : Variable
Bit rate : 384 Kbps
Channel(s) : 6 channels
Channel positions : Front: L C R, Side: L R, LFE
Sampling rate : 48.0 KHz
Stream size : 278 MiB (15%)


Plot:
A clinically depressed teenager gets a new start after he checks himself into an adult psychiatric ward.
 
http://shareimage.org/images/1los0sprjfebnm5egxs.png 
http://shareimage.org/images/h4u2y8toids77hum1sxt.png 
http://shareimage.org/images/8jhjcviu4lb41ucdm9a0.png 
http://shareimage.org/images/72jgrndptekbi7wfvi96.png